<svg xmlns="http://www.w3.org/2000/svg" viewBox="0 0 68 68">
  <defs>
    <style>
      .cls-1 {
        fill: #fff;
      }
    </style>
  </defs>
  <title>logo</title>
  <g id="圖層_2" data-name="圖層 2">
    <g id="logo">
      <rect class="cls-1" x="1" y="1" width="66" height="66" rx="4" />
      <path
        d="M63,2a3,3,0,0,1,3,3V63a3,3,0,0,1-3,3H5a3,3,0,0,1-3-3V5A3,3,0,0,1,5,2H63m0-2H5A5,5,0,0,0,0,5V63a5,5,0,0,0,5,5H63a5,5,0,0,0,5-5V5a5,5,0,0,0-5-5Z" />
      <path
        d="M21,19.46v-2.4h7.69v3.16h-.66Zm8.73,28.32,7,.76v2.4H21v-2.4l7-.76ZM25.42,32.89c0-5.26,0-10.57-.15-15.83H32.2C32,22.22,32,27.53,32,32.89V36c0,4.68,0,9.67.16,14.93H25.27c.15-5.16.15-10.47.15-15.83Zm8.71,4.87h-5.4V35.15h5.81c5.38,0,7.72-3.22,7.72-8s-2.63-7.46-7.93-7.46h-5.6V17.06h6.12c9.59,0,13.87,4.09,13.87,10.13C48.72,33,44.88,37.76,34.13,37.76Z" />
    </g>
  </g>
</svg>